<?xml version="1.0" encoding="UTF-8" standalone="no"?>
<!-- Created with Inkscape (http://www.inkscape.org/) -->

<svg
   width="300.00003mm"
   height="200mm"
   viewBox="0 0 300.00003 200"
   version="1.1"
   id="svg1"
   xmlns="http://www.w3.org/2000/svg"
   xmlns:svg="http://www.w3.org/2000/svg">
  <defs
     id="defs1" />
  <g
     id="layer1"
     transform="translate(-846.30261,-811.53394)">
    <g
       id="g13-6-7"
       transform="translate(648.63807,605.15472)">
      <rect
         style="fill:#008b8b;fill-opacity:1;stroke:none;stroke-width:12;stroke-linecap:round;stroke-linejoin:bevel;stroke-dasharray:none;stroke-opacity:1"
         id="rect1"
         width="300"
         height="200"
         x="197.66454"
         y="206.3792"
         ry="34.468296"
         rx="34.468296" />
      <path
         style="font-variation-settings:normal;fill:none;fill-opacity:1;stroke:#000000;stroke-width:8;stroke-linecap:round;stroke-linejoin:miter;stroke-miterlimit:4;stroke-dasharray:none;stroke-dashoffset:0;stroke-opacity:1;paint-order:fill markers stroke"
         id="path22-3-2"
         d="m 402.84517,290.9425 a 40.226261,40.45594 0 0 1 0,40.45594" />
      <path
         style="font-variation-settings:normal;fill:none;fill-opacity:1;stroke:#000000;stroke-width:9;stroke-linecap:round;stroke-linejoin:miter;stroke-miterlimit:4;stroke-dasharray:none;stroke-dashoffset:0;stroke-opacity:1;paint-order:fill markers stroke"
         id="path23-3-0"
         d="m 427.2769,276.95167 a 68.437592,68.437592 0 0 1 0,68.4376" />
      <path
         style="font-variation-settings:normal;fill:none;fill-opacity:1;stroke:#000000;stroke-width:10;stroke-linecap:round;stroke-linejoin:miter;stroke-miterlimit:4;stroke-dasharray:none;stroke-dashoffset:0;stroke-opacity:1;paint-order:fill markers stroke"
         id="path24-3-2"
         d="m 451.58997,262.91452 a 96.511902,96.511902 0 0 1 0,96.5119" />
      <path
         style="font-variation-settings:normal;fill:none;fill-opacity:1;stroke:#000000;stroke-width:8;stroke-linecap:round;stroke-linejoin:miter;stroke-miterlimit:4;stroke-dasharray:none;stroke-dashoffset:0;stroke-opacity:1;paint-order:fill markers stroke"
         id="path25-86-3"
         d="m -281.2097,290.9425 a 40.226261,40.45594 0 0 1 0,40.45594"
         transform="scale(-1,1)" />
      <g
         id="g6-0-7"
         transform="translate(324.70693,36.170483)"
         style="stroke-width:6;stroke-dasharray:none">
        <circle
           style="font-variation-settings:normal;fill:none;fill-opacity:1;stroke:#000000;stroke-width:6;stroke-linecap:round;stroke-linejoin:miter;stroke-miterlimit:4;stroke-dasharray:none;stroke-dashoffset:0;stroke-opacity:1;paint-order:fill markers stroke"
           id="path9-4-5"
           cx="-8.6255589"
           cy="275"
           r="17.3552" />
        <path
           style="font-variation-settings:normal;fill:none;fill-opacity:1;stroke:#000000;stroke-width:6;stroke-linecap:round;stroke-linejoin:miter;stroke-miterlimit:4;stroke-dasharray:none;stroke-dashoffset:0;stroke-opacity:1;paint-order:fill markers stroke"
           id="path15-88-9"
           d="M 8.9763451,315 A 17.636595,17.737293 0 0 1 -4.0955633,332.13291 17.636595,17.737293 0 0 1 -23.933989,323.86865" />
        <path
           style="fill:none;stroke:#000000;stroke-width:6;stroke-linecap:butt;stroke-linejoin:miter;stroke-dasharray:none;stroke-opacity:1"
           d="m 8.6949459,275 0.2814,40"
           id="path2-8-2" />
      </g>
      <g
         id="g7-9-2"
         transform="translate(220.78388,216.17048)"
         style="stroke-width:6;stroke-dasharray:none">
        <path
           style="fill:none;stroke:#000000;stroke-width:6;stroke-linecap:round;stroke-linejoin:miter;stroke-dasharray:none;stroke-opacity:1"
           d="M 164.54483,95.000001 H 129.90381"
           id="path17-7-8" />
        <path
           style="fill:none;stroke:#000000;stroke-width:6;stroke-linecap:round;stroke-linejoin:bevel;stroke-dasharray:none;paint-order:normal"
           id="path3-7-9"
           d="M 162.22432,103.66025 A 17.320509,17.320509 0 0 1 140.59605,111.00206 17.320509,17.320509 0 0 1 130.49399,90.517122 17.320509,17.320509 0 0 1 149.4851,77.82767 17.320509,17.320509 0 0 1 164.54483,95" />
      </g>
      <g
         id="g8-6-7"
         transform="translate(220.78388,216.17048)"
         style="stroke-width:6;stroke-dasharray:none">
        <path
           style="fill:none;stroke:#000000;stroke-width:6;stroke-linecap:round;stroke-linejoin:miter;stroke-dasharray:none;stroke-opacity:1"
           d="M 43.301271,75.000001 H 8.0280998"
           id="path8-43-3" />
        <path
           style="fill:none;stroke:#000000;stroke-width:6;stroke-linecap:round;stroke-dasharray:none;paint-order:fill markers stroke"
           id="path5-0-6"
           d="M 25.980761,45 A 17.320509,17.320509 0 0 1 34.641016,29.999999 17.320509,17.320509 0 0 1 51.961525,30" />
        <path
           style="fill:none;stroke:#000000;stroke-width:6;stroke-linecap:butt;stroke-linejoin:miter;stroke-dasharray:none;stroke-opacity:1"
           d="M 25.980762,44.999999 V 135"
           id="path6-3-1" />
      </g>
    </g>
  </g>
</svg>
